<?xml version="1.0" encoding="utf-8"?>
<!-- Generator: Adobe Illustrator 23.0.6, SVG Export Plug-In . SVG Version: 6.00 Build 0)  -->
<svg version="1.1" id="Layer_1" xmlns="http://www.w3.org/2000/svg" xmlns:xlink="http://www.w3.org/1999/xlink" x="0px" y="0px"
	 viewBox="0 0 488.2 488.2" style="enable-background:new 0 0 488.2 488.2;" xml:space="preserve">
<style type="text/css">
	.st0{fill:none;}
	.st1{fill:#85C4CB;}
	.st2{fill:#449CAB;stroke:#000000;stroke-miterlimit:10;}
	.st3{fill:#EF7734;}
	.st4{fill:#8B798A;}
	.st5{fill:#F4E8DD;}
	.st6{fill:none;stroke:#000000;stroke-miterlimit:10;}
	.st7{fill:#E0A838;}
	.st8{fill:#EF7734;stroke:#000000;stroke-linejoin:round;stroke-miterlimit:10;}
	.st9{fill:#E0A838;stroke:#000000;stroke-linejoin:round;stroke-miterlimit:10;}
	.st10{fill:none;stroke:#FFFFFF;stroke-miterlimit:10;}
	.st11{fill:#2A3332;}
	.st12{opacity:0.36;fill:url(#SVGID_1_);enable-background:new    ;}
	.st13{fill:#121C1B;}
	.st14{clip-path:url(#SVGID_3_);fill:url(#SVGID_4_);}
</style>
<pattern  y="488.2" width="566.9" height="566.9" patternUnits="userSpaceOnUse" id="New_Pattern_Swatch_3" viewBox="76.1 -622 566.9 566.9" style="overflow:visible;">
	<g>
		<rect x="76.1" y="-622" class="st0" width="566.9" height="566.9"/>
		<rect x="23.1" y="-648" class="st1" width="668" height="648"/>
		<path class="st2" d="M182.8-520.7c0,0-16.3,0-30.8,30.4c-5.1-5.2-11.1-14.8-7.9-30.4c0,0-15.9,0-30.2,29.2
			c-4.8-5.4-9.7-14.8-6.8-29.2c0,0-18,0-33,35.2h37h10.3h28.4h8.6H197C197-485.4,177.5-495,182.8-520.7z"/>
		<path class="st2" d="M210.2-492.6c0,0-13.4,0-25.3,25c-4.2-4.3-9.1-12.2-6.5-25c0,0-13.1,0-24.9,24c-4-4.5-8-12.1-5.6-24
			c0,0-14.8,0-27.1,29h30.4h8.4H183h7.1h31.8C221.9-463.6,205.9-471.5,210.2-492.6z"/>
		<path class="st2" d="M749.7-520.7c0,0-16.3,0-30.8,30.4c-5.1-5.2-11.1-14.8-7.9-30.4c0,0-15.9,0-30.2,29.2
			c-4.8-5.4-9.7-14.8-6.8-29.2c0,0-18,0-33,35.2h37h10.3h28.4h8.6h38.7C763.9-485.4,744.4-495,749.7-520.7z"/>
		<path class="st2" d="M777.1-492.6c0,0-13.4,0-25.3,25c-4.2-4.3-9.1-12.2-6.5-25c0,0-13.1,0-24.9,24c-4-4.5-8-12.1-5.6-24
			c0,0-14.8,0-27.1,29h30.4h8.4H750h7.1h31.8C788.8-463.6,772.8-471.5,777.1-492.6z"/>
		<path class="st2" d="M467.6-574.2c0,0-16.3,0-30.8,30.4c-5.1-5.2-11.1-14.8-7.9-30.4c0,0-15.9,0-30.2,29.2
			c-4.8-5.4-9.7-14.8-6.8-29.2c0,0-18,0-33,35.2h37h10.3h28.4h8.6h38.7C481.9-539,462.4-548.6,467.6-574.2z"/>
		<path class="st2" d="M495.1-546.2c0,0-13.4,0-25.3,25c-4.2-4.3-9.1-12.2-6.5-25c0,0-13.1,0-24.9,24c-4-4.5-8-12.1-5.6-24
			c0,0-14.8,0-27.1,29h30.4h8.4h23.4h7.1h31.8C506.8-517.2,490.7-525,495.1-546.2z"/>
		<path class="st2" d="M109.4-291.2c0,0-16.3,0-30.8,30.4c-5.1-5.2-11.1-14.8-7.9-30.4c0,0-15.9,0-30.2,29.2
			c-4.8-5.4-9.7-14.8-6.8-29.2c0,0-18,0-33,35.2h37H48h28.4h8.6h38.7C123.6-256,104.1-265.6,109.4-291.2z"/>
		<path class="st2" d="M136.8-263.2c0,0-13.4,0-25.3,25c-4.2-4.3-9.1-12.2-6.5-25c0,0-13.1,0-24.9,24c-4-4.5-8-12.1-5.6-24
			c0,0-14.8,0-27.1,29h30.4h8.4h23.4h7.1h31.8C148.5-234.2,132.5-242.1,136.8-263.2z"/>
		<path class="st2" d="M676.3-291.2c0,0-16.3,0-30.8,30.4c-5.1-5.2-11.1-14.8-7.9-30.4c0,0-15.9,0-30.2,29.2
			c-4.8-5.4-9.7-14.8-6.8-29.2c0,0-18,0-33,35.2h37h10.3h28.4h8.6h38.7C690.5-256,671-265.6,676.3-291.2z"/>
		<path class="st2" d="M703.7-263.2c0,0-13.4,0-25.3,25c-4.2-4.3-9.1-12.2-6.5-25c0,0-13.1,0-24.9,24c-4-4.5-8-12.1-5.6-24
			c0,0-14.8,0-27.1,29h30.4h8.4h23.4h7.1h31.8C715.4-234.2,699.4-242.1,703.7-263.2z"/>
		<path class="st2" d="M172.3-415.2c0,0,16.3,0,30.8,30.4c5.1-5.2,11.1-14.8,7.9-30.4c0,0,15.9,0,30.2,29.2
			c4.8-5.4,9.7-14.8,6.8-29.2c0,0,18,0,33,35.2h-37h-10.3h-28.4h-8.6H158C158-380,177.5-389.6,172.3-415.2z"/>
		<path class="st2" d="M144.8-387.2c0,0,13.4,0,25.3,25c4.2-4.3,9.1-12.2,6.5-25c0,0,13.1,0,24.9,24c4-4.5,8-12.1,5.6-24
			c0,0,14.8,0,27.1,29h-30.4h-8.4H172h-7.1h-31.8C133.1-358.2,149.2-366,144.8-387.2z"/>
		<path class="st2" d="M488.6-148.5c0,0,16.3,0,30.8,30.4c5.1-5.2,11.1-14.8,7.9-30.4c0,0,15.9,0,30.2,29.2
			c4.8-5.4,9.7-14.8,6.8-29.2c0,0,18,0,33,35.2h-37H550h-28.4h-8.6h-38.7C474.4-113.3,493.9-122.9,488.6-148.5z"/>
		<path class="st2" d="M461.2-120.5c0,0,13.4,0,25.3,25c4.2-4.3,9.1-12.2,6.5-25c0,0,13.1,0,24.9,24c4-4.5,8-12.1,5.6-24
			c0,0,14.8,0,27.1,29h-30.4h-8.4h-23.4h-7.1h-31.8C449.5-91.5,465.5-99.4,461.2-120.5z"/>
		<path class="st2" d="M324.9-282.4c0,0,16.3,0,30.8,30.4c5.1-5.2,11.1-14.8,7.9-30.4c0,0,15.9,0,30.2,29.2
			c4.8-5.4,9.7-14.8,6.8-29.2c0,0,18,0,33,35.2h-37h-10.3h-28.4h-8.6h-38.7C310.6-247.2,330.1-256.7,324.9-282.4z"/>
		<path class="st2" d="M297.5-254.3c0,0,13.4,0,25.3,25c4.2-4.3,9.1-12.2,6.5-25c0,0,13.1,0,24.9,24c4-4.5,8-12.1,5.6-24
			c0,0,14.8,0,27.1,29h-30.4H348h-23.4h-7.1h-31.8C285.7-225.4,301.8-233.2,297.5-254.3z"/>
		<g>
			<path class="st3" d="M87.4-619.5c0,0-20.6,27.8-10.6,85c10,57.2,28.5,59.9,31.7,59.4c3.2-0.5,20.1-8.3,13.4-66
				C115.1-598.7,87.4-619.5,87.4-619.5z"/>
			<polygon class="st4" points="75,-546.9 77.6,-529.6 118.2,-562.5 113.5,-578 			"/>
			<polygon class="st5" points="80.3,-517.8 77.6,-529.6 118.2,-562.5 120.5,-550.4 			"/>
			<line class="st6" x1="87.4" y1="-619.5" x2="108.5" y2="-475"/>
			<line class="st6" x1="75" y1="-546.9" x2="113.5" y2="-578"/>
			<line class="st6" x1="77.6" y1="-529.6" x2="118.2" y2="-562.5"/>
			<line class="st6" x1="80.3" y1="-517.8" x2="120.5" y2="-550.4"/>
			<path class="st6" d="M87.4-619.5c0,0-20.6,27.8-10.6,85c10,57.2,28.5,59.9,31.7,59.4c3.2-0.5,20.1-8.3,13.4-66
				C115.1-598.7,87.4-619.5,87.4-619.5z"/>
		</g>
		<g>
			<path class="st3" d="M654.3-619.5c0,0-20.6,27.8-10.6,85s28.5,59.9,31.7,59.4c3.2-0.5,20.1-8.3,13.4-66
				C682-598.7,654.3-619.5,654.3-619.5z"/>
			<polygon class="st4" points="642,-546.9 644.5,-529.6 685.2,-562.5 680.4,-578 			"/>
			<polygon class="st5" points="647.2,-517.8 644.5,-529.6 685.2,-562.5 687.5,-550.4 			"/>
			<line class="st6" x1="654.3" y1="-619.5" x2="675.4" y2="-475"/>
			<line class="st6" x1="642" y1="-546.9" x2="680.4" y2="-578"/>
			<line class="st6" x1="644.5" y1="-529.6" x2="685.2" y2="-562.5"/>
			<line class="st6" x1="647.2" y1="-517.8" x2="687.5" y2="-550.4"/>
			<path class="st6" d="M654.3-619.5c0,0-20.6,27.8-10.6,85s28.5,59.9,31.7,59.4c3.2-0.5,20.1-8.3,13.4-66
				C682-598.7,654.3-619.5,654.3-619.5z"/>
		</g>
		<g>
			<path class="st7" d="M393.7-348.1c0,0,20.6,27.8,10.6,85c-10,57.2-28.5,59.9-31.7,59.4c-3.2-0.5-20.1-8.3-13.4-66
				C366-327.3,393.7-348.1,393.7-348.1z"/>
			<polygon class="st3" points="406,-275.5 403.5,-258.2 362.8,-291.1 367.6,-306.6 			"/>
			<polygon class="st4" points="400.8,-246.4 403.5,-258.2 362.8,-291.1 360.5,-279 			"/>
			<line class="st6" x1="393.7" y1="-348.1" x2="372.6" y2="-203.6"/>
			<line class="st6" x1="406" y1="-275.5" x2="367.6" y2="-306.6"/>
			<line class="st6" x1="403.5" y1="-258.2" x2="362.8" y2="-291.1"/>
			<line class="st6" x1="400.8" y1="-246.4" x2="360.5" y2="-279"/>
			<path class="st6" d="M393.7-348.1c0,0,20.6,27.8,10.6,85c-10,57.2-28.5,59.9-31.7,59.4c-3.2-0.5-20.1-8.3-13.4-66
				C366-327.3,393.7-348.1,393.7-348.1z"/>
		</g>
		<g>
			<path class="st5" d="M525.8-420.8c-21.6-25.3-38-40.1-66.1-42.9c-2.6,28.1,9.8,46.3,29.6,73c20.9,28.2,58.7,55.5,58.7,55.5
				c5.5-5.9,4.8-15.7,4.8-15.7s9.5,2.5,16.4-1.8C569.2-352.7,549.4-393.1,525.8-420.8z"/>
			<path class="st8" d="M551.5-341.3l-92-111.4l0.2-11L552.8-351C552.8-351,553.4-345.3,551.5-341.3z"/>
			<path class="st9" d="M562.5-350.4l-92-111.4l-10.8-1.8l93.1,112.7C552.7-350.9,558.2-349.3,562.5-350.4z"/>
			<path class="st6" d="M525.8-420.8c-21.6-25.3-38-40.1-66.1-42.9c-2.6,28.1,9.8,46.3,29.6,73c20.9,28.2,58.7,55.5,58.7,55.5
				c5.5-5.9,4.8-15.7,4.8-15.7s9.5,2.5,16.4-1.8C569.2-352.7,549.4-393.1,525.8-420.8z"/>
			<line class="st6" x1="459.7" y1="-463.7" x2="552.8" y2="-351"/>
		</g>
		<g>
			<path class="st5" d="M270.1-672.6c11.2-31.3,15.7-53,4.1-78.7c-25.6,11.8-35.2,31.6-48.5,62.1c-14,32.2-18.7,78.5-18.7,78.5
				c7.9,1.8,16-3.7,16-3.7s2.5,9.5,9.7,13.3C232.7-601.1,257.9-638.4,270.1-672.6z"/>
			<path class="st8" d="M214-610.7L264.5-746l9.6-5.3l-51.2,137C223-614.4,218.4-611,214-610.7z"/>
			<path class="st9" d="M227.4-605.7L277.9-741l-3.8-10.3l-51.2,137C222.9-614.4,224.3-608.8,227.4-605.7z"/>
			<path class="st6" d="M270.1-672.6c11.2-31.3,15.7-53,4.1-78.7c-25.6,11.8-35.2,31.6-48.5,62.1c-14,32.2-18.7,78.5-18.7,78.5
				c7.9,1.8,16-3.7,16-3.7s2.5,9.5,9.7,13.3C232.7-601.1,257.9-638.4,270.1-672.6z"/>
			<line class="st6" x1="274.2" y1="-751.3" x2="223" y2="-614.4"/>
		</g>
		<g>
			<path class="st5" d="M270.1-105.7c11.2-31.3,15.7-53,4.1-78.7c-25.6,11.8-35.2,31.6-48.5,62.1c-14,32.2-18.7,78.5-18.7,78.5
				c7.9,1.8,16-3.7,16-3.7s2.5,9.5,9.7,13.3C232.7-34.1,257.9-71.4,270.1-105.7z"/>
			<path class="st8" d="M214-43.8l50.6-135.3l9.6-5.3L223-47.4C223-47.4,218.4-44.1,214-43.8z"/>
			<path class="st9" d="M227.4-38.8l50.6-135.3l-3.8-10.3l-51.2,137C222.9-47.5,224.3-41.9,227.4-38.8z"/>
			<path class="st6" d="M270.1-105.7c11.2-31.3,15.7-53,4.1-78.7c-25.6,11.8-35.2,31.6-48.5,62.1c-14,32.2-18.7,78.5-18.7,78.5
				c7.9,1.8,16-3.7,16-3.7s2.5,9.5,9.7,13.3C232.7-34.1,257.9-71.4,270.1-105.7z"/>
			<line class="st6" x1="274.2" y1="-184.4" x2="223" y2="-47.4"/>
		</g>
	</g>
</pattern>
<path class="st10" d="M242.9,5.2C108.7,5.2,0.1,113.3,0.1,246.7s108.6,241.5,242.8,241.5s242.8-108.1,242.8-241.5S377,5.2,242.9,5.2
	z M242.9,266.4c-10.9,0-19.9-8.9-19.9-19.8c0-10.9,9-19.8,19.9-19.8s19.9,8.9,19.9,19.8C262.8,257.5,253.8,266.4,242.9,266.4z"/>
<path class="st11" d="M242.9,226.8c-10.9,0-19.9,8.9-19.9,19.8c0,10.9,9,19.8,19.9,19.8s19.9-8.9,19.9-19.8
	C262.8,235.7,253.8,226.8,242.9,226.8z M242.9,263.9c-9.7,0-17.4-7.7-17.4-17.3c0-9.6,7.8-17.3,17.4-17.3s17.4,7.7,17.4,17.3
	C260.3,256.2,252.5,263.9,242.9,263.9z"/>
<linearGradient id="SVGID_1_" gradientUnits="userSpaceOnUse" x1="70.9385" y1="279.0278" x2="485.0254" y2="279.0278" gradientTransform="matrix(1 0 0 -1 0 490)">
	<stop  offset="0" style="stop-color:#FFFFFF"/>
	<stop  offset="1" style="stop-color:#000000"/>
</linearGradient>
<path class="st12" d="M414,75.7c-94.7-94.2-248.3-94.2-343,0l157.8,157c3.6-3.6,8.6-5.8,14.1-5.8c10.9,0,19.9,8.9,19.9,19.8
	c0,5.4-2.3,10.5-5.9,14.1L414,416.9C508.7,322.7,508.7,169.9,414,75.7z"/>
<path class="st13" d="M262.8,246.6c0-10.9-9-19.8-19.9-19.8c-5.5,0-10.5,2.3-14.1,5.8l1.8,1.8c3.2-3.2,7.6-5.1,12.3-5.1
	c9.7,0,17.4,7.7,17.4,17.3c0,4.8-2,9.2-5.2,12.3l1.8,1.8C260.5,257.1,262.8,252,262.8,246.6z"/>
<g>
	<defs>
		<path id="SVGID_2_" d="M242,4C108.9,4,1,111.6,1,244.5S108.9,485,242,485s241-107.6,241-240.5S375.1,4,242,4z"/>
	</defs>
	<clipPath id="SVGID_3_">
		<use xlink:href="#SVGID_2_"  style="overflow:visible;"/>
	</clipPath>
	<pattern  id="SVGID_4_" xlink:href="#New_Pattern_Swatch_3" patternTransform="matrix(0.6428 0 0 0.5903 -2394.2107 -4006.7905)">
	</pattern>
	<rect x="-4.9" y="-11.8" class="st14" width="522.9" height="686"/>
</g>
</svg>
